<svg fill="#0254ec" id="Layer_1" data-name="Layer 1" xmlns="http://www.w3.org/2000/svg" viewBox="0 0 189.5 189.5"><path d="M187.57,92.33a2.48,2.48,0,0,1,1.93,2.42h0a2.48,2.48,0,0,1-1.93,2.42c-20.41,4.71-51.36,13.84-64,26.44s-21.74,43.55-26.44,64a2.48,2.48,0,0,1-2.42,1.93h0a2.48,2.48,0,0,1-2.42-1.93c-4.71-20.41-13.84-51.36-26.44-64s-43.55-21.73-64-26.44A2.48,2.48,0,0,1,0,94.75H0a2.48,2.48,0,0,1,1.93-2.42c20.41-4.71,51.36-13.84,64-26.44s21.74-43.55,26.44-64A2.48,2.48,0,0,1,94.75,0h0a2.48,2.48,0,0,1,2.42,1.93c4.71,20.41,13.84,51.36,26.44,64S167.16,87.62,187.57,92.33Z" transform="translate(0)"/></svg>